<svg width="100" height="100" viewBox="0 0 100 100" fill="none" xmlns="http://www.w3.org/2000/svg">
<rect width="100" height="100" rx="14" fill="url(#paint0_linear_90019_94)"/>
<g filter="url(#filter0_ddi_90019_94)">
<mask id="path-2-inside-1_90019_94" fill="white">
<path d="M32.9591 35.8V52.16C32.9591 53.68 33.3057 54.8533 33.9991 55.68C34.7191 56.5067 35.7991 56.92 37.2391 56.92C38.6791 56.92 39.7591 56.5067 40.4791 55.68C41.2257 54.8267 41.5991 53.6533 41.5991 52.16V35.8H49.4391V52.16C49.4391 54.7467 48.8924 56.96 47.7991 58.8C46.7057 60.6133 45.2124 61.9867 43.3191 62.92C41.4524 63.8267 39.3724 64.28 37.0791 64.28C34.7857 64.28 32.7324 63.8267 30.9191 62.92C29.1324 61.9867 27.7191 60.6133 26.6791 58.8C25.6657 56.9867 25.1591 54.7733 25.1591 52.16V35.8H32.9591ZM68.0356 64L62.4356 53.6H61.5956V64H53.7556V35.8H66.1156C68.3823 35.8 70.3023 36.2 71.8756 37C73.449 37.7733 74.6356 38.8533 75.4356 40.24C76.2356 41.6 76.6356 43.1333 76.6356 44.84C76.6356 46.76 76.1023 48.4533 75.0356 49.92C73.9956 51.36 72.4623 52.3867 70.4356 53L76.7956 64H68.0356ZM61.5956 48.24H65.4756C66.5423 48.24 67.3423 47.9867 67.8756 47.48C68.409 46.9733 68.6756 46.24 68.6756 45.28C68.6756 44.3733 68.3956 43.6667 67.8356 43.16C67.3023 42.6267 66.5156 42.36 65.4756 42.36H61.5956V48.24Z"/>
</mask>
<path d="M32.9591 35.8V52.16C32.9591 53.68 33.3057 54.8533 33.9991 55.68C34.7191 56.5067 35.7991 56.92 37.2391 56.92C38.6791 56.92 39.7591 56.5067 40.4791 55.68C41.2257 54.8267 41.5991 53.6533 41.5991 52.16V35.8H49.4391V52.16C49.4391 54.7467 48.8924 56.96 47.7991 58.8C46.7057 60.6133 45.2124 61.9867 43.3191 62.92C41.4524 63.8267 39.3724 64.28 37.0791 64.28C34.7857 64.28 32.7324 63.8267 30.9191 62.92C29.1324 61.9867 27.7191 60.6133 26.6791 58.8C25.6657 56.9867 25.1591 54.7733 25.1591 52.16V35.8H32.9591ZM68.0356 64L62.4356 53.6H61.5956V64H53.7556V35.8H66.1156C68.3823 35.8 70.3023 36.2 71.8756 37C73.449 37.7733 74.6356 38.8533 75.4356 40.24C76.2356 41.6 76.6356 43.1333 76.6356 44.84C76.6356 46.76 76.1023 48.4533 75.0356 49.92C73.9956 51.36 72.4623 52.3867 70.4356 53L76.7956 64H68.0356ZM61.5956 48.24H65.4756C66.5423 48.24 67.3423 47.9867 67.8756 47.48C68.409 46.9733 68.6756 46.24 68.6756 45.28C68.6756 44.3733 68.3956 43.6667 67.8356 43.16C67.3023 42.6267 66.5156 42.36 65.4756 42.36H61.5956V48.24Z" fill="black"/>
<path d="M32.9591 35.8H33.9591V34.8H32.9591V35.8ZM33.9991 55.68L33.2329 56.3226L33.2389 56.3298L33.245 56.3368L33.9991 55.68ZM40.4791 55.68L39.7265 55.0215L39.725 55.0232L40.4791 55.68ZM41.5991 35.8V34.8H40.5991V35.8H41.5991ZM49.4391 35.8H50.4391V34.8H49.4391V35.8ZM47.7991 58.8L48.6555 59.3164L48.6587 59.3108L47.7991 58.8ZM43.3191 62.92L43.756 63.8195L43.7612 63.8169L43.3191 62.92ZM30.9191 62.92L30.456 63.8063L30.4639 63.8105L30.4718 63.8144L30.9191 62.92ZM26.6791 58.8L25.8061 59.2879L25.8116 59.2975L26.6791 58.8ZM25.1591 35.8V34.8H24.1591V35.8H25.1591ZM31.9591 35.8V52.16H33.9591V35.8H31.9591ZM31.9591 52.16C31.9591 53.8202 32.3371 55.2546 33.2329 56.3226L34.7653 55.0374C34.2744 54.4521 33.9591 53.5398 33.9591 52.16H31.9591ZM33.245 56.3368C34.2101 57.4449 35.6062 57.92 37.2391 57.92V55.92C35.9919 55.92 35.228 55.5684 34.7531 55.0232L33.245 56.3368ZM37.2391 57.92C38.8719 57.92 40.268 57.4449 41.2331 56.3368L39.725 55.0232C39.2501 55.5684 38.4862 55.92 37.2391 55.92V57.92ZM41.2316 56.3385C42.1827 55.2516 42.5991 53.8174 42.5991 52.16H40.5991C40.5991 53.4892 40.2688 54.4017 39.7265 55.0215L41.2316 56.3385ZM42.5991 52.16V35.8H40.5991V52.16H42.5991ZM41.5991 36.8H49.4391V34.8H41.5991V36.8ZM48.4391 35.8V52.16H50.4391V35.8H48.4391ZM48.4391 52.16C48.4391 54.6044 47.9234 56.6331 46.9394 58.2892L48.6587 59.3108C49.8614 57.2869 50.4391 54.8889 50.4391 52.16H48.4391ZM46.9427 58.2837C45.9478 59.9336 44.598 61.1746 42.8769 62.0231L43.7612 63.8169C45.8268 62.7987 47.4636 61.293 48.6554 59.3163L46.9427 58.2837ZM42.8822 62.0205C41.1654 62.8543 39.2371 63.28 37.0791 63.28V65.28C39.5077 65.28 41.7394 64.799 43.756 63.8195L42.8822 62.0205ZM37.0791 63.28C34.9205 63.28 33.0235 62.8542 31.3663 62.0256L30.4718 63.8144C32.4413 64.7991 34.651 65.28 37.0791 65.28V63.28ZM31.3821 62.0337C29.7711 61.1921 28.4953 59.9567 27.5465 58.3025L25.8116 59.2975C26.9428 61.2699 28.4937 62.7813 30.456 63.8063L31.3821 62.0337ZM27.552 58.3122C26.6408 56.6817 26.1591 54.6459 26.1591 52.16H24.1591C24.1591 54.9008 24.6906 57.2917 25.8061 59.2878L27.552 58.3122ZM26.1591 52.16V35.8H24.1591V52.16H26.1591ZM25.1591 36.8H32.9591V34.8H25.1591V36.8ZM68.0356 64L67.1552 64.4741L67.4383 65H68.0356V64ZM62.4356 53.6L63.3161 53.1259L63.0329 52.6H62.4356V53.6ZM61.5956 53.6V52.6H60.5956V53.6H61.5956ZM61.5956 64V65H62.5956V64H61.5956ZM53.7556 64H52.7556V65H53.7556V64ZM53.7556 35.8V34.8H52.7556V35.8H53.7556ZM71.8756 37L71.4223 37.8915L71.4345 37.8974L71.8756 37ZM75.4356 40.24L74.5694 40.7397L74.5737 40.747L75.4356 40.24ZM75.0356 49.92L74.2269 49.3318L74.2249 49.3345L75.0356 49.92ZM70.4356 53L70.146 52.0429L68.9384 52.4083L69.5699 53.5005L70.4356 53ZM76.7956 64V65H78.5289L77.6613 63.4995L76.7956 64ZM61.5956 48.24H60.5956V49.24H61.5956V48.24ZM67.8756 47.48L67.1869 46.755L67.1869 46.755L67.8756 47.48ZM67.8356 43.16L67.1285 43.8671L67.1462 43.8848L67.1647 43.9015L67.8356 43.16ZM61.5956 42.36V41.36H60.5956V42.36H61.5956ZM68.9161 63.5259L63.3161 53.1259L61.5552 54.0741L67.1552 64.4741L68.9161 63.5259ZM62.4356 52.6H61.5956V54.6H62.4356V52.6ZM60.5956 53.6V64H62.5956V53.6H60.5956ZM61.5956 63H53.7556V65H61.5956V63ZM54.7556 64V35.8H52.7556V64H54.7556ZM53.7556 36.8H66.1156V34.8H53.7556V36.8ZM66.1156 36.8C68.2682 36.8 70.0236 37.1802 71.4224 37.8914L72.3289 36.1086C70.581 35.2198 68.4964 34.8 66.1156 34.8V36.8ZM71.4345 37.8974C72.8475 38.592 73.878 39.5411 74.5694 40.7397L76.3018 39.7403C75.3933 38.1655 74.0504 36.9547 72.3167 36.1026L71.4345 37.8974ZM74.5737 40.747C75.276 41.9409 75.6356 43.2966 75.6356 44.84H77.6356C77.6356 42.9701 77.1953 41.2591 76.2976 39.733L74.5737 40.747ZM75.6356 44.84C75.6356 46.5618 75.1617 48.0464 74.2269 49.3318L75.8444 50.5082C77.0429 48.8602 77.6356 46.9582 77.6356 44.84H75.6356ZM74.2249 49.3345C73.3365 50.5646 72.0045 51.4804 70.146 52.0429L70.7253 53.9571C72.9201 53.2929 74.6547 52.1554 75.8463 50.5055L74.2249 49.3345ZM69.5699 53.5005L75.9299 64.5005L77.6613 63.4995L71.3013 52.4995L69.5699 53.5005ZM76.7956 63H68.0356V65H76.7956V63ZM61.5956 49.24H65.4756V47.24H61.5956V49.24ZM65.4756 49.24C66.684 49.24 67.776 48.9539 68.5644 48.205L67.1869 46.755C66.9085 47.0194 66.4006 47.24 65.4756 47.24V49.24ZM68.5644 48.205C69.3522 47.4566 69.6756 46.4264 69.6756 45.28H67.6756C67.6756 46.0536 67.4658 46.4901 67.1869 46.755L68.5644 48.205ZM69.6756 45.28C69.6756 44.1524 69.3178 43.1525 68.5065 42.4185L67.1647 43.9015C67.4734 44.1809 67.6756 44.5943 67.6756 45.28H69.6756ZM68.5427 42.4529C67.76 41.6702 66.6783 41.36 65.4756 41.36V43.36C66.353 43.36 66.8446 43.5831 67.1285 43.8671L68.5427 42.4529ZM65.4756 41.36H61.5956V43.36H65.4756V41.36ZM60.5956 42.36V48.24H62.5956V42.36H60.5956Z" fill="#1C1C21" mask="url(#path-2-inside-1_90019_94)"/>
</g>
<defs>
<filter id="filter0_ddi_90019_94" x="11.7631" y="30.0588" width="78.4287" height="55.2723" filterUnits="userSpaceOnUse" color-interpolation-filters="sRGB">
<feFlood flood-opacity="0" result="BackgroundImageFix"/>
<feColorMatrix in="SourceAlpha" type="matrix" values="0 0 0 0 0 0 0 0 0 0 0 0 0 0 0 0 0 0 127 0" result="hardAlpha"/>
<feMorphology radius="1" operator="dilate" in="SourceAlpha" result="effect1_dropShadow_90019_94"/>
<feOffset/>
<feComposite in2="hardAlpha" operator="out"/>
<feColorMatrix type="matrix" values="0 0 0 0 0.784314 0 0 0 0 0.858824 0 0 0 0 0.917647 0 0 0 1 0"/>
<feBlend mode="normal" in2="BackgroundImageFix" result="effect1_dropShadow_90019_94"/>
<feColorMatrix in="SourceAlpha" type="matrix" values="0 0 0 0 0 0 0 0 0 0 0 0 0 0 0 0 0 0 127 0" result="hardAlpha"/>
<feMorphology radius="5.74118" operator="erode" in="SourceAlpha" result="effect2_dropShadow_90019_94"/>
<feOffset dy="7.6549"/>
<feGaussianBlur stdDeviation="9.56865"/>
<feComposite in2="hardAlpha" operator="out"/>
<feColorMatrix type="matrix" values="0 0 0 0 0.788235 0 0 0 0 0.858824 0 0 0 0 0.917647 0 0 0 0.32 0"/>
<feBlend mode="normal" in2="effect1_dropShadow_90019_94" result="effect2_dropShadow_90019_94"/>
<feBlend mode="normal" in="SourceGraphic" in2="effect2_dropShadow_90019_94" result="shape"/>
<feColorMatrix in="SourceAlpha" type="matrix" values="0 0 0 0 0 0 0 0 0 0 0 0 0 0 0 0 0 0 127 0" result="hardAlpha"/>
<feOffset dy="3.82745"/>
<feGaussianBlur stdDeviation="4"/>
<feComposite in2="hardAlpha" operator="arithmetic" k2="-1" k3="1"/>
<feColorMatrix type="matrix" values="0 0 0 0 0.0470588 0 0 0 0 0.286275 0 0 0 0 0.52549 0 0 0 0.04 0"/>
<feBlend mode="normal" in2="shape" result="effect3_innerShadow_90019_94"/>
</filter>
<linearGradient id="paint0_linear_90019_94" x1="50" y1="0" x2="50" y2="100" gradientUnits="userSpaceOnUse">
<stop stop-color="#EBF3FA"/>
<stop offset="1" stop-color="#DFEDFA"/>
</linearGradient>
</defs>
</svg>
